<?xml version="1.0" standalone="no"?>
<!DOCTYPE svg PUBLIC "-//W3C//DTD SVG 20010904//EN"
 "http://www.w3.org/TR/2001/REC-SVG-20010904/DTD/svg10.dtd">
<svg version="1.0" xmlns="http://www.w3.org/2000/svg"
 width="265.000000pt" height="265.000000pt" viewBox="0 0 265.000000 265.000000"
 preserveAspectRatio="xMidYMid meet">
<metadata>
Created by potrace 1.11, written by Peter Selinger 2001-2013
</metadata>
<g transform="translate(0.000000,265.000000) scale(0.100000,-0.100000)"
fill="#000000" stroke="none">
<path d="M1523 2564 c-60 -30 -67 -62 -68 -312 0 -193 2 -227 17 -260 39 -82
149 -100 210 -34 36 38 38 58 38 274 -1 106 -1 203 0 216 1 98 -106 161 -197
116z"/>
<path d="M1000 2431 c-54 -29 -73 -77 -73 -185 0 -105 15 -145 66 -176 66 -41
154 -12 189 60 19 40 19 210 1 245 -36 65 -119 91 -183 56z"/>
<path d="M484 2305 c-35 -15 -58 -40 -71 -80 -8 -24 -14 -373 -13 -780 0 -118
0 -223 0 -235 0 -8 0 -202 0 -430 1 -228 1 -419 0 -425 -1 -5 -2 -14 -1 -18 1
-5 3 -44 5 -87 6 -114 30 -148 116 -165 29 -6 1582 -6 1620 -1 14 3 27 5 30 5
12 2 57 48 65 66 5 11 10 209 11 440 3 475 2 490 -62 520 -46 22 -82 24 -122
9 -72 -29 -80 -51 -81 -244 -2 -125 -5 -162 -20 -195 -41 -94 -173 -94 -223
-1 -13 24 -19 116 -18 299 1 203 -17 256 -91 277 -64 19 -126 -6 -156 -63 -15
-28 -17 -70 -18 -322 -1 -311 -3 -323 -55 -370 -33 -30 -120 -28 -154 4 -42
40 -49 80 -51 311 -1 239 -6 260 -63 293 -62 36 -144 21 -176 -33 -23 -39 -27
-59 -31 -155 -5 -114 -11 -129 -55 -158 -34 -22 -67 -26 -109 -15 -37 11 -47
19 -73 59 -14 22 -16 93 -16 696 -1 666 -3 723 -35 764 -31 40 -102 56 -153
34z"/>
<path d="M1005 1910 c-35 -14 -65 -55 -73 -101 -4 -24 -7 -131 -6 -236 2 -236
12 -271 90 -302 57 -23 125 1 161 56 16 24 18 55 18 268 0 218 -2 243 -19 268
-34 50 -112 72 -171 47z"/>
<path d="M1522 1774 c-52 -27 -65 -64 -66 -180 0 -94 2 -104 27 -142 64 -97
209 -65 233 51 7 35 6 149 -1 189 -15 78 -116 121 -193 82z"/>
<path d="M2048 1777 c-14 -5 -35 -26 -46 -46 -18 -32 -20 -55 -21 -202 -1
-185 8 -218 67 -249 37 -20 108 -19 141 2 47 29 59 78 59 241 0 92 -5 164 -12
186 -24 68 -109 99 -188 68z"/>
</g>
</svg>
