<?xml version="1.0" standalone="no"?>
<!DOCTYPE svg PUBLIC "-//W3C//DTD SVG 20010904//EN"
 "http://www.w3.org/TR/2001/REC-SVG-20010904/DTD/svg10.dtd">
<svg version="1.0" xmlns="http://www.w3.org/2000/svg"
 width="933.000000pt" height="933.000000pt" viewBox="0 0 933.000000 933.000000"
 preserveAspectRatio="xMidYMid meet">
<metadata>
Created by potrace 1.11, written by Peter Selinger 2001-2013
</metadata>
<g transform="translate(0.000000,933.000000) scale(0.100000,-0.100000)"
fill="#000000" stroke="none">
<path d="M516 7404 c-21 -7 -89 -28 -152 -46 -63 -17 -114 -36 -114 -41 0 -5
48 -156 106 -335 58 -180 110 -340 114 -357 5 -16 26 -84 48 -150 22 -66 79
-241 127 -390 48 -148 118 -364 155 -480 38 -115 91 -280 118 -365 28 -85 97
-301 155 -480 58 -179 150 -464 205 -635 55 -170 144 -445 197 -610 53 -165
105 -325 115 -355 10 -30 50 -156 90 -280 39 -124 75 -234 80 -245 5 -11 33
-99 64 -195 30 -96 65 -205 76 -242 12 -38 24 -68 27 -68 3 0 3 6 0 14 -6 14
-66 248 -187 721 -129 507 -183 715 -217 845 -19 74 -36 142 -38 150 -2 8 -35
141 -75 295 -39 154 -125 492 -191 750 -66 259 -144 565 -174 680 -30 116 -88
343 -129 505 -41 162 -82 320 -90 350 -8 30 -44 172 -80 315 -36 143 -69 271
-72 284 -7 23 -6 23 37 16 24 -3 55 -8 69 -10 32 -4 110 -16 131 -20 9 -2 40
-6 69 -10 29 -4 60 -8 69 -10 9 -1 52 -8 96 -15 44 -6 91 -13 105 -15 14 -3
88 -13 165 -24 134 -19 189 -28 245 -36 117 -19 162 -25 205 -30 28 -3 60 -8
72 -11 21 -4 399 -60 473 -69 19 -3 46 -7 60 -10 14 -2 48 -7 75 -11 28 -3 57
-8 67 -9 9 -2 38 -6 65 -10 63 -9 92 -13 128 -19 17 -3 80 -12 140 -21 61 -9
121 -18 135 -20 14 -2 45 -7 70 -10 25 -4 61 -8 80 -11 19 -3 60 -9 90 -14 30
-5 75 -12 100 -15 25 -3 56 -8 70 -10 28 -5 229 -34 275 -40 34 -5 157 -23
195 -30 14 -2 45 -7 70 -10 25 -3 87 -13 139 -21 51 -8 108 -16 125 -19 67 -8
392 -56 411 -60 11 -2 38 -6 60 -9 22 -3 85 -12 140 -20 55 -8 118 -18 140
-21 22 -3 51 -8 65 -10 14 -2 43 -7 65 -10 22 -2 72 -9 110 -15 39 -6 92 -13
118 -17 26 -3 49 -9 51 -12 3 -4 -37 -32 -87 -62 -51 -31 -238 -145 -417 -254
-179 -109 -360 -219 -403 -246 -43 -27 -80 -49 -82 -49 -2 0 -46 -26 -97 -58
-369 -232 -1407 -856 -1423 -856 -21 -1 -36 -23 -135 -194 -45 -79 -51 -95
-39 -106 8 -8 59 -37 114 -66 55 -29 114 -60 130 -70 17 -9 71 -39 120 -65 50
-27 169 -91 265 -143 96 -52 202 -109 235 -127 33 -17 292 -157 575 -309 574
-310 637 -344 730 -394 36 -19 112 -61 170 -92 58 -32 141 -77 185 -100 70
-37 320 -172 514 -277 129 -70 669 -361 746 -403 96 -51 146 -79 375 -202 96
-52 216 -117 265 -143 50 -27 126 -68 170 -93 104 -58 101 -57 93 -47 -4 4 -4
13 1 19 5 6 13 27 19 46 17 56 333 1038 467 1450 35 107 109 335 164 505 55
171 149 463 209 650 165 510 307 950 369 1140 72 224 111 345 139 430 12 39
68 212 124 385 56 173 119 369 140 435 21 66 40 128 42 139 3 15 -19 24 -147
62 -82 24 -157 43 -165 44 -11 0 -21 -26 -37 -93 -12 -50 -58 -231 -102 -402
-82 -322 -189 -740 -292 -1145 -125 -488 -172 -671 -220 -860 -28 -107 -52
-202 -54 -210 -2 -8 -31 -121 -64 -250 -33 -129 -85 -332 -115 -450 -52 -205
-77 -305 -253 -990 -41 -162 -76 -302 -78 -310 -4 -18 -86 -336 -122 -470 -14
-52 -29 -99 -33 -104 -5 -4 -144 77 -309 180 -165 104 -309 194 -318 199 -10
6 -173 107 -363 226 -190 119 -635 397 -990 619 -355 221 -667 417 -695 435
-27 18 -171 108 -320 200 -148 92 -292 182 -320 200 -68 44 -475 298 -498 310
-9 6 -99 61 -198 124 -145 92 -178 116 -167 126 7 7 249 194 538 417 289 222
626 482 750 578 124 95 387 299 585 452 198 152 374 289 390 303 l30 26 -42
-26 -42 -27 -153 32 c-84 17 -211 45 -282 61 -72 16 -144 32 -160 35 -17 2
-38 7 -46 9 -8 2 -26 6 -40 9 -14 2 -117 25 -230 50 -113 24 -216 47 -230 50
-28 5 -164 35 -195 42 -11 3 -29 7 -40 9 -53 12 -492 107 -510 111 -47 10 -66
14 -180 39 -66 14 -136 28 -155 31 -19 3 -37 7 -40 9 -3 2 -123 29 -265 60
-143 30 -273 59 -290 62 -16 4 -34 8 -40 9 -5 1 -93 20 -195 42 -102 23 -322
71 -490 107 -168 36 -375 81 -460 100 -85 19 -261 57 -390 85 -129 28 -295 64
-368 81 -151 33 -153 33 -206 13z"/>
<path d="M2990 1965 l0 -40 1618 0 c889 0 1622 4 1628 7 12 8 11 55 -1 66 -4
4 -735 7 -1626 7 l-1619 0 0 -40z"/>
</g>
</svg>
